<svg xmlns="http://www.w3.org/2000/svg" xmlns:xlink="http://www.w3.org/1999/xlink" preserveAspectRatio="xMidYMid" width="29" height="23" viewBox="0 0 29 23">
  <defs>
    <style>
      .cls-1 {
        fill: #bbb;
        fill-rule: evenodd;
      }
    </style>
  </defs>
  <path d="M16.000,23.000 L16.000,5.000 L29.000,5.000 L29.000,23.000 L16.000,23.000 ZM21.000,8.000 L19.000,8.000 L19.000,10.000 L21.000,10.000 L21.000,8.000 ZM21.000,13.000 L19.000,13.000 L19.000,15.000 L21.000,15.000 L21.000,13.000 ZM21.000,18.000 L19.000,18.000 L19.000,20.000 L21.000,20.000 L21.000,18.000 ZM26.000,8.000 L24.000,8.000 L24.000,10.000 L26.000,10.000 L26.000,8.000 ZM26.000,13.000 L24.000,13.000 L24.000,15.000 L26.000,15.000 L26.000,13.000 ZM26.000,18.000 L24.000,18.000 L24.000,20.000 L26.000,20.000 L26.000,18.000 ZM0.000,-0.000 L13.000,-0.000 L13.000,23.000 L0.000,23.000 L0.000,-0.000 ZM8.000,20.000 L10.000,20.000 L10.000,18.000 L8.000,18.000 L8.000,20.000 ZM8.000,15.000 L10.000,15.000 L10.000,13.000 L8.000,13.000 L8.000,15.000 ZM8.000,10.000 L10.000,10.000 L10.000,8.000 L8.000,8.000 L8.000,10.000 ZM8.000,5.000 L10.000,5.000 L10.000,3.000 L8.000,3.000 L8.000,5.000 ZM3.000,20.000 L5.000,20.000 L5.000,18.000 L3.000,18.000 L3.000,20.000 ZM3.000,15.000 L5.000,15.000 L5.000,13.000 L3.000,13.000 L3.000,15.000 ZM3.000,10.000 L5.000,10.000 L5.000,8.000 L3.000,8.000 L3.000,10.000 ZM3.000,5.000 L5.000,5.000 L5.000,3.000 L3.000,3.000 L3.000,5.000 Z" class="cls-1"/>
</svg>
