<svg xmlns="http://www.w3.org/2000/svg" xmlns:xlink="http://www.w3.org/1999/xlink" preserveAspectRatio="xMidYMid" width="19" height="15" viewBox="0 0 19 15">
  <defs>
    <style>
      .cls-1 {
        fill: #fff;
        fill-rule: evenodd;
      }
    </style>
  </defs>
  <path d="M17.575,15.000 L1.425,15.000 C0.638,15.000 0.000,14.370 0.000,13.594 L0.000,4.688 C0.000,3.911 0.638,3.281 1.425,3.281 L5.700,3.281 L5.700,1.406 C5.700,0.630 6.338,0.000 7.125,0.000 L11.875,0.000 C12.662,0.000 13.300,0.630 13.300,1.406 L13.300,3.281 L17.575,3.281 C18.362,3.281 19.000,3.911 19.000,4.688 L19.000,13.594 C19.000,14.370 18.362,15.000 17.575,15.000 ZM9.500,5.156 C7.401,5.156 5.700,6.835 5.700,8.906 C5.700,10.977 7.401,12.656 9.500,12.656 C11.599,12.656 13.300,10.977 13.300,8.906 C13.300,6.835 11.599,5.156 9.500,5.156 Z" class="cls-1"/>
</svg>
