<svg xmlns="http://www.w3.org/2000/svg" xmlns:xlink="http://www.w3.org/1999/xlink" preserveAspectRatio="xMidYMid" width="21" height="21" viewBox="0 0 21 21">
  <defs>
    <style>
      .cls-1 {
        fill: #fff;
        fill-rule: evenodd;
      }
    </style>
  </defs>
  <path d="M21.005,18.721 L18.721,21.005 L12.514,14.798 C9.378,16.876 5.111,16.534 2.349,13.771 C-0.806,10.617 -0.806,5.503 2.349,2.349 C5.503,-0.806 10.617,-0.806 13.771,2.349 C16.534,5.111 16.876,9.378 14.798,12.514 L21.005,18.721 ZM11.629,4.490 C9.658,2.519 6.462,2.519 4.490,4.490 C2.519,6.462 2.519,9.658 4.490,11.629 C6.462,13.601 9.658,13.601 11.629,11.629 C13.601,9.658 13.601,6.462 11.629,4.490 Z" class="cls-1"/>
</svg>
