<svg xmlns="http://www.w3.org/2000/svg" xmlns:xlink="http://www.w3.org/1999/xlink" preserveAspectRatio="xMidYMid" width="92.063" height="92" viewBox="0 0 92.063 92">
  <defs>
    <style>
      .cls-1 {
        fill: #f5f0e9;
      }

      .cls-2 {
        fill: #d2cac0;
      }

      .cls-2, .cls-3, .cls-4, .cls-5, .cls-6, .cls-7, .cls-8, .cls-9 {
        fill-rule: evenodd;
      }

      .cls-3 {
        fill: #bab5ae;
      }

      .cls-4 {
        fill: #e1d8ce;
      }

      .cls-5 {
        fill: #d0c8c0;
      }

      .cls-6 {
        fill: #aba7a1;
      }

      .cls-7 {
        fill: #a29e97;
      }

      .cls-8 {
        fill: #c5c1ba;
      }

      .cls-9 {
        fill: #b5b1ab;
      }
    </style>
  </defs>
  <g>
    <circle cx="46" cy="46" r="46" class="cls-1"/>
    <g>
      <g>
        <rect width="92" height="92" class="cls-1"/>
        <path d="M46.000,66.000 C70.485,72.547 82.543,76.935 92.050,80.310 C92.050,82.180 92.000,84.086 92.000,92.000 C83.045,92.000 11.477,92.000 0.000,92.000 C0.000,85.423 0.000,83.403 0.000,79.000 C15.386,74.427 23.879,71.795 46.000,66.000 Z" class="cls-2"/>
        <path d="M46.025,65.000 C62.959,69.578 62.642,69.524 69.005,71.789 C63.554,78.050 57.501,83.000 46.672,83.000 C34.578,83.000 30.446,77.878 24.991,71.382 C32.317,69.132 31.722,68.789 46.025,65.000 Z" class="cls-3"/>
      </g>
      <g>
        <path d="M33.000,58.000 L60.000,58.000 C60.000,58.000 60.000,63.557 60.000,68.527 C61.565,69.120 62.505,69.755 64.000,71.000 C58.789,76.727 56.073,80.000 46.000,80.000 C35.222,80.000 31.561,74.160 30.000,71.000 C30.682,69.953 31.935,68.811 33.000,68.430 C33.000,63.472 33.000,58.000 33.000,58.000 Z" class="cls-4"/>
        <path d="M56.000,61.000 C56.833,60.237 60.450,52.871 60.450,62.819 C56.552,67.033 50.482,72.000 47.000,72.000 C41.536,72.000 35.932,66.474 32.592,62.027 C32.592,56.653 31.894,55.892 37.000,59.000 C40.612,62.363 53.985,62.844 56.000,61.000 Z" class="cls-5"/>
      </g>
      <path d="M46.000,18.000 C65.472,18.000 63.591,26.333 64.000,33.000 C64.274,37.473 65.396,51.236 64.000,55.000 C62.763,58.335 52.103,69.000 47.000,69.000 C39.600,69.000 31.944,58.865 30.000,55.000 C28.244,51.509 28.732,40.970 29.000,34.000 C29.177,29.392 27.660,18.000 46.000,18.000 Z" class="cls-4"/>
      <g>
        <path d="M60.000,17.000 C68.591,17.000 69.558,25.516 68.000,33.000 C67.776,34.075 67.604,36.201 64.000,41.000 C64.000,27.917 62.745,23.000 60.000,23.000 C53.649,23.000 55.948,23.375 54.000,23.000 C52.102,22.635 53.649,17.000 60.000,17.000 Z" class="cls-6"/>
        <path d="M59.000,22.000 C62.460,21.767 63.643,22.461 64.000,24.000 C65.204,29.182 65.044,32.061 65.000,34.000 C64.959,35.811 64.979,37.850 64.000,41.000 C64.000,27.917 62.745,23.000 60.000,23.000 C53.649,23.000 55.948,23.375 54.000,23.000 C53.368,22.878 53.118,22.173 53.300,21.286 C55.122,22.015 54.772,22.285 59.000,22.000 Z" class="cls-7"/>
        <path d="M48.000,10.000 C56.837,10.000 60.000,14.515 60.000,17.000 C60.000,19.485 56.837,25.000 48.000,25.000 C43.777,25.000 42.287,21.000 39.000,21.000 C29.914,21.000 29.000,29.515 29.000,41.000 C21.823,31.897 25.705,21.226 27.000,19.000 C28.567,16.306 30.685,13.777 33.003,13.272 C37.143,12.371 35.591,10.823 35.000,9.000 C41.357,10.995 44.983,10.000 48.000,10.000 Z" class="cls-8"/>
        <path d="M54.000,22.000 C57.661,20.537 58.599,19.653 60.000,17.000 C60.000,17.878 59.606,19.133 58.706,20.390 C57.059,22.692 53.716,25.000 48.000,25.000 C43.777,25.000 42.287,21.000 39.000,21.000 C29.914,21.000 29.000,29.515 29.000,41.000 C28.084,39.838 27.953,34.327 28.000,33.000 C28.119,29.617 30.150,23.275 32.000,22.000 C34.688,20.147 40.168,19.493 42.000,21.000 C44.085,22.714 45.041,23.675 48.000,24.000 C52.395,24.127 50.867,23.252 54.000,22.000 Z" class="cls-9"/>
      </g>
    </g>
  </g>
</svg>
